<svg width="1440" height="900" viewBox="0 0 1440 900" fill="none" xmlns="http://www.w3.org/2000/svg">
<path d="M182.048 545.096C158.509 545.096 137.276 539.636 118.348 528.716C99.42 517.796 84.496 502.265 73.576 482.124C62.656 461.983 57.196 438.687 57.196 412.236C57.196 385.785 62.7773 362.611 73.94 342.712C85.3453 322.813 100.997 307.404 120.896 296.484C140.795 285.564 163.484 280.104 188.964 280.104C201.825 280.104 214.444 281.439 226.82 284.108C239.439 286.777 250.723 290.296 260.672 294.664L257.396 324.876C233.857 315.897 211.411 311.408 190.056 311.408C168.944 311.408 151.229 315.897 136.912 324.876C122.837 333.612 112.281 345.624 105.244 360.912C98.4493 375.957 95.052 393.187 95.052 412.6C95.052 443.176 103.181 467.685 119.44 486.128C135.941 504.571 160.087 513.792 191.876 513.792C198.671 513.792 205.951 513.307 213.716 512.336C221.481 511.123 228.397 509.303 234.464 506.876V443.54H194.424V412.236H269.044V525.804C258.367 531.628 245.505 536.36 230.46 540C215.657 543.397 199.52 545.096 182.048 545.096ZM307.634 285.2H340.394V321.6H307.634V285.2ZM307.634 361.64H340.394V540H307.634V361.64ZM462.666 543.64C444.466 543.64 428.693 539.636 415.346 531.628C402 523.377 391.808 512.215 384.77 498.14C377.733 484.065 374.214 468.292 374.214 450.82C374.214 433.348 377.733 417.575 384.77 403.5C391.808 389.425 402 378.384 415.346 370.376C428.693 362.125 444.466 358 462.666 358C480.624 358 496.276 362.125 509.622 370.376C523.212 378.384 533.525 389.425 540.562 403.5C547.6 417.575 551.118 433.348 551.118 450.82C551.118 468.292 547.6 484.065 540.562 498.14C533.525 512.215 523.212 523.377 509.622 531.628C496.276 539.636 480.624 543.64 462.666 543.64ZM462.666 514.52C480.138 514.52 493.606 508.939 503.07 497.776C512.777 486.613 517.63 470.961 517.63 450.82C517.63 430.679 512.777 415.027 503.07 403.864C493.606 392.701 480.138 387.12 462.666 387.12C445.194 387.12 431.605 392.701 421.898 403.864C412.434 415.027 407.702 430.679 407.702 450.82C407.702 470.961 412.434 486.613 421.898 497.776C431.605 508.939 445.194 514.52 462.666 514.52ZM562.772 361.64H599.172L649.04 503.964L698.544 361.64H735.308L667.604 540H630.84L562.772 361.64ZM800.22 543.64C783.718 543.64 770.372 538.787 760.18 529.08C750.23 519.373 745.256 506.997 745.256 491.952C745.256 469.384 755.933 453.247 777.288 443.54C798.642 433.833 823.516 428.737 851.908 428.252C851.908 412.236 848.753 401.437 842.444 395.856C836.377 390.032 826.549 387.12 812.96 387.12C805.437 387.12 797.914 388.333 790.392 390.76C782.869 392.944 774.74 397.069 766.004 403.136L761.272 376.564C768.552 370.983 777.53 366.493 788.208 363.096C798.885 359.699 810.048 358 821.696 358C836.984 358 849.117 360.669 858.096 366.008C867.317 371.347 873.99 380.204 878.116 392.58C882.484 404.956 884.668 421.943 884.668 443.54V479.94C884.668 489.647 885.032 497.048 885.76 502.144C886.73 506.997 888.672 510.759 891.584 513.428C894.496 516.097 898.985 517.432 905.052 517.432H908.328L903.232 543.64H900.684C890.492 543.64 882.484 542.669 876.66 540.728C870.836 538.787 866.346 535.996 863.192 532.356C860.28 528.716 857.489 523.741 854.82 517.432C839.774 534.904 821.574 543.64 800.22 543.64ZM806.408 517.432C815.144 517.432 823.516 515.248 831.524 510.88C839.774 506.512 846.569 500.688 851.908 493.408V450.82C825.7 451.791 806.893 455.309 795.488 461.376C784.325 467.2 778.744 476.785 778.744 490.132C778.744 499.353 781.17 506.269 786.024 510.88C791.12 515.248 797.914 517.432 806.408 517.432ZM1021.7 358C1070.24 358 1094.5 385.907 1094.5 441.72V540H1061.74V441.72C1061.74 422.549 1058.1 408.717 1050.82 400.224C1043.78 391.488 1031.89 387.12 1015.15 387.12C1004.47 387.12 994.766 389.061 986.03 392.944C977.294 396.827 970.742 402.651 966.374 410.416V540H933.614V361.64H959.094L962.734 380.568C972.198 372.075 981.662 366.251 991.126 363.096C1000.83 359.699 1011.02 358 1021.7 358ZM1225.03 358C1273.56 358 1297.83 385.907 1297.83 441.72V540H1265.07V441.72C1265.07 422.549 1261.43 408.717 1254.15 400.224C1247.11 391.488 1235.22 387.12 1218.48 387.12C1207.8 387.12 1198.09 389.061 1189.36 392.944C1180.62 396.827 1174.07 402.651 1169.7 410.416V540H1136.94V361.64H1162.42L1166.06 380.568C1175.53 372.075 1184.99 366.251 1194.45 363.096C1204.16 359.699 1214.35 358 1225.03 358ZM1340.27 285.2H1373.03V321.6H1340.27V285.2ZM1340.27 361.64H1373.03V540H1340.27V361.64Z" fill="#333333" fill-opacity="0.03"/>
<path d="M107.244 531.992L106.472 533.278L106.472 533.278L107.244 531.992ZM73.392 494.5L72.0425 495.155L72.0464 495.163L73.392 494.5ZM80.308 356.544L78.9886 355.83L78.983 355.841L80.308 356.544ZM241.196 284.472L240.865 285.935C240.874 285.937 240.882 285.939 240.891 285.941L241.196 284.472ZM272.136 294.664L273.576 295.084C273.775 294.401 273.468 293.673 272.84 293.339L272.136 294.664ZM261.944 329.608L261.362 330.99C261.756 331.156 262.202 331.146 262.589 330.962C262.975 330.779 263.264 330.439 263.384 330.028L261.944 329.608ZM231.004 319.78L230.655 321.239L230.662 321.241L231.004 319.78ZM147.284 332.52L148.194 333.713L148.197 333.71L147.284 332.52ZM114.888 375.836L116.275 376.406L116.278 376.4L114.888 375.836ZM120.348 489.04L121.517 488.1L121.517 488.1L120.348 489.04ZM204.796 503.236L205.316 504.643C205.815 504.459 206.179 504.023 206.273 503.499L204.796 503.236ZM214.988 446.088L216.465 446.351C216.543 445.914 216.423 445.465 216.138 445.125C215.853 444.785 215.432 444.588 214.988 444.588V446.088ZM184.776 446.088L183.298 445.834C183.223 446.27 183.344 446.716 183.629 447.055C183.914 447.393 184.334 447.588 184.776 447.588V446.088ZM190.6 412.236V410.736C189.87 410.736 189.246 411.262 189.122 411.982L190.6 412.236ZM259.396 412.236L260.873 412.496C260.95 412.06 260.83 411.611 260.545 411.272C260.26 410.932 259.839 410.736 259.396 410.736V412.236ZM239.376 525.804L240.085 527.126C240.49 526.908 240.773 526.517 240.853 526.064L239.376 525.804ZM201.52 539.636L201.867 541.095C201.875 541.093 201.882 541.092 201.889 541.09L201.52 539.636ZM158.204 543.596C139.023 543.596 122.311 539.283 108.016 530.706L106.472 533.278C121.297 542.173 138.559 546.596 158.204 546.596V543.596ZM108.016 530.706C93.7199 522.128 82.6272 509.855 74.7376 493.837L72.0464 495.163C80.1728 511.662 91.6481 524.384 106.472 533.278L108.016 530.706ZM74.7415 493.845C66.8527 477.589 62.88 458.288 62.88 435.896H59.88C59.88 458.64 63.9153 478.408 72.0425 495.155L74.7415 493.845ZM62.88 435.896C62.88 407.001 69.1385 380.794 81.633 357.247L78.983 355.841C66.2402 379.856 59.88 406.551 59.88 435.896H62.88ZM81.6274 357.258C94.3713 333.693 111.545 315.206 133.152 301.762L131.568 299.214C109.495 312.949 91.9674 331.832 78.9886 355.83L81.6274 357.258ZM133.152 301.762C154.752 288.322 178.38 281.604 204.068 281.604V278.604C177.825 278.604 153.648 285.476 131.568 299.214L133.152 301.762ZM204.068 281.604C215.836 281.604 228.1 283.045 240.865 285.935L241.527 283.009C228.569 280.075 216.081 278.604 204.068 278.604V281.604ZM240.891 285.941C253.675 288.594 263.838 291.954 271.432 295.989L272.84 293.339C264.903 289.123 254.44 285.689 241.501 283.003L240.891 285.941ZM270.696 294.244L260.504 329.188L263.384 330.028L273.576 295.084L270.696 294.244ZM262.526 328.226C253.215 324.305 242.82 321.005 231.346 318.319L230.662 321.241C241.999 323.894 252.23 327.145 261.362 330.99L262.526 328.226ZM231.353 318.321C220.096 315.629 209.543 314.276 199.7 314.276V317.276C209.27 317.276 219.587 318.592 230.655 321.239L231.353 318.321ZM199.7 314.276C179.025 314.276 161.222 319.944 146.371 331.33L148.197 333.71C162.466 322.771 179.607 317.276 199.7 317.276V314.276ZM146.374 331.327C131.827 342.423 120.871 357.086 113.498 375.272L116.278 376.4C123.465 358.672 134.106 344.457 148.194 333.713L146.374 331.327ZM113.501 375.266C106.142 393.171 102.468 412.293 102.468 432.62H105.468C105.468 412.664 109.074 393.931 116.275 376.406L113.501 375.266ZM102.468 432.62C102.468 456.858 107.976 476.039 119.179 489.98L121.517 488.1C110.88 474.862 105.468 456.43 105.468 432.62H102.468ZM119.179 489.98C130.447 504.003 147.064 510.924 168.76 510.924V507.924C147.747 507.924 132.089 501.256 121.517 488.1L119.179 489.98ZM168.76 510.924C181.784 510.924 193.974 508.835 205.316 504.643L204.276 501.829C193.293 505.888 181.458 507.924 168.76 507.924V510.924ZM206.273 503.499L216.465 446.351L213.511 445.825L203.319 502.973L206.273 503.499ZM214.988 444.588H184.776V447.588H214.988V444.588ZM186.254 446.342L192.078 412.49L189.122 411.982L183.298 445.834L186.254 446.342ZM190.6 413.736H259.396V410.736H190.6V413.736ZM257.919 411.976L237.899 525.544L240.853 526.064L260.873 412.496L257.919 411.976ZM238.667 524.482C228.858 529.746 216.363 534.319 201.151 538.182L201.889 541.09C217.253 537.188 229.995 532.54 240.085 527.126L238.667 524.482ZM201.173 538.177C185.981 541.794 171.66 543.596 158.204 543.596V546.596C171.927 546.596 186.483 544.758 201.867 541.095L201.173 538.177ZM320.193 285.2V283.7C319.459 283.7 318.833 284.23 318.713 284.953L320.193 285.2ZM357.321 285.2L358.8 285.447C358.873 285.012 358.75 284.567 358.465 284.23C358.18 283.894 357.761 283.7 357.321 283.7V285.2ZM350.769 324.512V326.012C351.502 326.012 352.128 325.482 352.248 324.759L350.769 324.512ZM313.641 324.512L312.161 324.265C312.088 324.7 312.211 325.145 312.496 325.482C312.781 325.818 313.2 326.012 313.641 326.012V324.512ZM307.089 360.548V359.048C306.361 359.048 305.738 359.571 305.611 360.287L307.089 360.548ZM344.217 360.548L345.694 360.809C345.771 360.372 345.651 359.924 345.366 359.584C345.081 359.244 344.66 359.048 344.217 359.048V360.548ZM312.549 540V541.5C313.276 541.5 313.899 540.977 314.026 540.261L312.549 540ZM275.421 540L273.943 539.739C273.866 540.176 273.986 540.624 274.271 540.964C274.556 541.304 274.977 541.5 275.421 541.5V540ZM320.193 286.7H357.321V283.7H320.193V286.7ZM355.841 284.953L349.289 324.265L352.248 324.759L358.8 285.447L355.841 284.953ZM350.769 323.012H313.641V326.012H350.769V323.012ZM315.12 324.759L321.672 285.447L318.713 284.953L312.161 324.265L315.12 324.759ZM307.089 362.048H344.217V359.048H307.089V362.048ZM342.739 360.287L311.071 539.739L314.026 540.261L345.694 360.809L342.739 360.287ZM312.549 538.5H275.421V541.5H312.549V538.5ZM276.898 540.261L308.566 360.809L305.611 360.287L273.943 539.739L276.898 540.261ZM378.307 522.528L377.153 523.486L377.162 523.496L378.307 522.528ZM373.211 412.964L371.877 412.278C371.875 412.283 371.872 412.288 371.87 412.293L373.211 412.964ZM409.247 372.196L408.424 370.942L408.415 370.948L409.247 372.196ZM512.987 378.384L511.833 379.342C511.837 379.346 511.84 379.35 511.843 379.354L512.987 378.384ZM518.083 487.948L519.413 488.642L519.417 488.634L518.083 487.948ZM482.047 528.352L481.215 527.104L481.215 527.104L482.047 528.352ZM485.687 474.48L484.303 473.903C484.301 473.908 484.299 473.913 484.297 473.918L485.687 474.48ZM483.503 400.952L484.682 400.024L484.682 400.024L483.503 400.952ZM425.991 399.132L426.891 400.332C426.898 400.327 426.905 400.321 426.912 400.316L425.991 399.132ZM405.607 426.432L406.988 427.019L406.992 427.009L405.607 426.432ZM407.427 499.96L406.219 500.849C406.229 500.862 406.239 500.875 406.249 500.888L407.427 499.96ZM430.359 542.14C407.876 542.14 390.992 535.219 379.453 521.56L377.162 523.496C389.404 537.987 407.222 545.14 430.359 545.14V542.14ZM379.461 521.57C367.839 507.576 361.971 489.495 361.971 467.2H358.971C358.971 490.041 364.994 508.846 377.153 523.486L379.461 521.57ZM361.971 467.2C361.971 448.26 366.165 430.411 374.553 413.635L371.87 412.293C363.271 429.49 358.971 447.799 358.971 467.2H361.971ZM374.545 413.65C383.169 396.881 395.012 383.489 410.079 373.444L408.415 370.948C392.906 381.287 380.725 395.074 371.877 412.278L374.545 413.65ZM410.07 373.45C425.352 363.422 442.294 358.408 460.935 358.408V355.408C441.721 355.408 424.204 360.586 408.424 370.942L410.07 373.45ZM460.935 358.408C483.41 358.408 500.291 365.445 511.833 379.342L514.141 377.426C501.902 362.688 484.082 355.408 460.935 355.408V358.408ZM511.843 379.354C523.702 393.348 529.687 411.424 529.687 433.712H532.687C532.687 410.864 526.539 392.055 514.132 377.414L511.843 379.354ZM529.687 433.712C529.687 452.645 525.376 470.488 516.749 487.262L519.417 488.634C528.263 471.434 532.687 453.12 532.687 433.712H529.687ZM516.754 487.254C508.131 503.781 496.287 517.056 481.215 527.104L482.879 529.6C498.383 519.264 510.564 505.603 519.413 488.642L516.754 487.254ZM481.215 527.104C466.185 537.124 449.248 542.14 430.359 542.14V545.14C449.813 545.14 467.334 539.964 482.879 529.6L481.215 527.104ZM435.455 513.472C447.183 513.472 457.58 509.97 466.588 502.964L464.747 500.596C456.282 507.179 446.538 510.472 435.455 510.472V513.472ZM466.588 502.964C475.556 495.989 482.38 486.665 487.078 475.042L484.297 473.918C479.774 485.106 473.251 493.981 464.747 500.596L466.588 502.964ZM487.072 475.057C492.009 463.209 494.467 450.271 494.467 436.26H491.467C491.467 449.913 489.073 462.455 484.303 473.903L487.072 475.057ZM494.467 436.26C494.467 420.56 491.284 408.403 484.682 400.024L482.325 401.88C488.342 409.517 491.467 420.899 491.467 436.26H494.467ZM484.682 400.024C478.033 391.584 468.335 387.44 455.839 387.44V390.44C467.611 390.44 476.356 394.304 482.325 401.88L484.682 400.024ZM455.839 387.44C444.346 387.44 434.072 390.947 425.07 397.948L426.912 400.316C435.383 393.728 445.007 390.44 455.839 390.44V387.44ZM425.091 397.932C416.11 404.668 409.163 413.999 404.223 425.855L406.992 427.009C411.759 415.569 418.401 406.7 426.891 400.332L425.091 397.932ZM404.227 425.845C399.286 437.456 396.827 450.278 396.827 464.288H399.827C399.827 450.634 402.222 438.219 406.988 427.019L404.227 425.845ZM396.827 464.288C396.827 479.982 399.888 492.238 406.219 500.849L408.636 499.071C402.834 491.181 399.827 479.655 399.827 464.288H396.827ZM406.249 500.888C412.904 509.335 422.729 513.472 435.455 513.472V510.472C423.43 510.472 414.569 506.601 408.606 499.032L406.249 500.888ZM555.049 360.548V359.048C554.606 359.048 554.185 359.244 553.9 359.584C553.615 359.924 553.495 360.372 553.572 360.809L555.049 360.548ZM592.905 360.548L594.391 360.342C594.289 359.601 593.654 359.048 592.905 359.048V360.548ZM611.833 497.412L610.347 497.617C610.438 498.271 610.945 498.789 611.596 498.893C612.247 498.997 612.891 498.664 613.181 498.071L611.833 497.412ZM678.809 360.548V359.048C678.237 359.048 677.714 359.374 677.462 359.889L678.809 360.548ZM717.029 360.548L718.354 361.252C718.601 360.787 718.586 360.227 718.315 359.775C718.044 359.324 717.556 359.048 717.029 359.048V360.548ZM621.661 540V541.5C622.216 541.5 622.726 541.194 622.986 540.704L621.661 540ZM586.717 540L585.24 540.261C585.367 540.977 585.989 541.5 586.717 541.5V540ZM555.049 362.048H592.905V359.048H555.049V362.048ZM591.419 360.753L610.347 497.617L613.319 497.207L594.391 360.342L591.419 360.753ZM613.181 498.071L680.157 361.207L677.462 359.889L610.486 496.753L613.181 498.071ZM678.809 362.048H717.029V359.048H678.809V362.048ZM715.705 359.844L620.337 539.296L622.986 540.704L718.354 361.252L715.705 359.844ZM621.661 538.5H586.717V541.5H621.661V538.5ZM588.194 539.739L556.526 360.287L553.572 360.809L585.24 540.261L588.194 539.739ZM730.907 523.62L729.756 524.582C729.76 524.586 729.763 524.59 729.766 524.594L730.907 523.62ZM726.539 415.876L727.895 416.517L727.899 416.509L726.539 415.876ZM761.119 373.288L761.996 374.505C762.001 374.501 762.005 374.498 762.009 374.495L761.119 373.288ZM852.483 377.292L851.211 378.087C851.511 378.568 852.057 378.838 852.622 378.786C853.186 378.733 853.673 378.367 853.88 377.839L852.483 377.292ZM859.035 360.548V359.048C858.417 359.048 857.863 359.426 857.638 360.001L859.035 360.548ZM891.431 360.548L892.909 360.801C892.984 360.365 892.862 359.919 892.577 359.581C892.292 359.243 891.873 359.048 891.431 359.048V360.548ZM869.955 486.128L871.428 486.409C871.43 486.399 871.432 486.39 871.433 486.381L869.955 486.128ZM872.139 511.244L871.202 512.415C871.227 512.435 871.252 512.454 871.279 512.473L872.139 511.244ZM885.971 513.792L887.401 514.245C887.545 513.789 887.464 513.292 887.181 512.906C886.899 512.52 886.449 512.292 885.971 512.292V513.792ZM876.507 543.64V545.14C877.161 545.14 877.739 544.717 877.937 544.093L876.507 543.64ZM853.211 542.184L852.942 543.66L852.954 543.662L853.211 542.184ZM839.743 535.632L838.682 536.693C838.694 536.705 838.707 536.717 838.719 536.729L839.743 535.632ZM831.007 519.252L832.444 518.821C832.289 518.305 831.87 517.912 831.345 517.791C830.821 517.669 830.272 517.838 829.906 518.233L831.007 519.252ZM816.447 502.144L815.531 500.956C815.525 500.961 815.52 500.965 815.514 500.969L816.447 502.144ZM836.103 475.208L837.493 475.77L837.493 475.77L836.103 475.208ZM833.555 401.316L832.363 402.227C832.368 402.233 832.372 402.239 832.377 402.244L833.555 401.316ZM779.319 399.496L780.272 400.654L780.276 400.651L779.319 399.496ZM759.663 427.16L758.278 426.583C758.276 426.588 758.274 426.593 758.272 426.598L759.663 427.16ZM761.483 498.868L760.235 499.7C760.24 499.708 760.245 499.716 760.251 499.724L761.483 498.868ZM776.043 542.14C757.764 542.14 743.147 535.635 732.047 522.646L729.766 524.594C741.477 538.298 756.951 545.14 776.043 545.14V542.14ZM732.057 522.658C721.173 509.644 715.663 492.42 715.663 470.84H712.663C712.663 492.94 718.315 510.903 729.756 524.582L732.057 522.658ZM715.663 470.84C715.663 451.893 719.738 433.79 727.895 416.517L725.182 415.235C716.838 432.906 712.663 451.446 712.663 470.84H715.663ZM727.899 416.509C736.049 399.01 747.416 385.021 761.996 374.505L760.241 372.071C745.216 382.909 733.53 397.313 725.179 415.243L727.899 416.509ZM762.009 374.495C776.553 363.766 792.864 358.408 810.987 358.408V355.408C792.225 355.408 775.29 360.97 760.228 372.081L762.009 374.495ZM810.987 358.408C829.758 358.408 843.049 365.028 851.211 378.087L853.755 376.497C844.93 362.377 830.556 355.408 810.987 355.408V358.408ZM853.88 377.839L860.432 361.095L857.638 360.001L851.086 376.745L853.88 377.839ZM859.035 362.048H891.431V359.048H859.035V362.048ZM889.952 360.295L868.476 485.875L871.433 486.381L892.909 360.801L889.952 360.295ZM868.481 485.847C867.496 491.019 866.999 495.846 866.999 500.324H869.999C869.999 496.066 870.472 491.429 871.428 486.409L868.481 485.847ZM866.999 500.324C866.999 505.802 868.23 510.038 871.202 512.415L873.076 510.073C871.195 508.568 869.999 505.523 869.999 500.324H866.999ZM871.279 512.473C872.741 513.497 874.738 514.187 877.145 514.63C879.57 515.077 882.519 515.292 885.971 515.292V512.292C882.628 512.292 879.874 512.082 877.689 511.68C875.485 511.274 873.963 510.69 872.999 510.015L871.279 512.473ZM884.541 513.339L875.077 543.187L877.937 544.093L887.401 514.245L884.541 513.339ZM876.507 542.14C866.59 542.14 858.924 541.655 853.468 540.706L852.954 543.662C858.66 544.654 866.525 545.14 876.507 545.14V542.14ZM853.479 540.708C848.397 539.784 844.177 537.719 840.766 534.535L838.719 536.729C842.588 540.34 847.347 542.643 852.942 543.66L853.479 540.708ZM840.803 534.571C837.403 531.171 834.588 525.968 832.444 518.821L829.57 519.683C831.794 527.096 834.803 532.813 838.682 536.693L840.803 534.571ZM829.906 518.233C815.136 534.194 797.21 542.14 776.043 542.14V545.14C798.07 545.14 816.787 536.827 832.108 520.271L829.906 518.233ZM788.419 513.472C799.196 513.472 808.866 510.079 817.38 503.319L815.514 500.969C807.526 507.313 798.511 510.472 788.419 510.472V513.472ZM817.363 503.332C826.097 496.594 832.798 487.386 837.493 475.77L834.712 474.646C830.186 485.841 823.784 494.59 815.531 500.956L817.363 503.332ZM837.493 475.77C842.185 464.165 844.519 451.353 844.519 437.352H841.519C841.519 451.015 839.242 463.44 834.712 474.646L837.493 475.77ZM844.519 437.352C844.519 421.18 841.34 408.774 834.733 400.388L832.377 402.244C838.388 409.874 841.519 421.492 841.519 437.352H844.519ZM834.746 400.405C828.13 391.752 818.936 387.44 807.347 387.44V390.44C818.083 390.44 826.361 394.379 832.363 402.227L834.746 400.405ZM807.347 387.44C796.776 387.44 787.1 391.1 778.362 398.341L780.276 400.651C788.524 393.817 797.534 390.44 807.347 390.44V387.44ZM778.365 398.338C769.894 405.314 763.209 414.75 758.278 426.583L761.047 427.737C765.824 416.274 772.242 407.267 780.272 400.654L778.365 398.338ZM758.272 426.598C753.583 438.196 751.247 450.765 751.247 464.288H754.247C754.247 451.118 756.521 438.934 761.053 427.722L758.272 426.598ZM751.247 464.288C751.247 478.797 754.197 490.643 760.235 499.7L762.731 498.036C757.121 489.621 754.247 478.414 754.247 464.288H751.247ZM760.251 499.724C766.634 508.916 776.104 513.472 788.419 513.472V510.472C776.952 510.472 768.465 506.292 762.715 498.012L760.251 499.724ZM943.733 360.548V359.048C943.005 359.048 942.382 359.571 942.256 360.287L943.733 360.548ZM975.401 360.548H976.901C976.901 359.72 976.229 359.048 975.401 359.048V360.548ZM975.401 376.564H973.901C973.901 377.153 974.246 377.688 974.783 377.931C975.319 378.173 975.949 378.08 976.391 377.691L975.401 376.564ZM999.425 361.64L999.938 363.05C999.945 363.047 999.953 363.044 999.961 363.041L999.425 361.64ZM1066.77 372.196L1065.63 373.172L1065.63 373.172L1066.77 372.196ZM1076.23 444.268L1074.75 444.021C1074.75 444.029 1074.75 444.037 1074.75 444.045L1076.23 444.268ZM1059.85 540V541.5C1060.58 541.5 1061.2 540.978 1061.33 540.262L1059.85 540ZM1022.72 540L1021.24 539.744C1021.17 540.18 1021.29 540.627 1021.57 540.966C1021.86 541.304 1022.28 541.5 1022.72 541.5V540ZM1037.65 451.548L1036.17 451.298C1036.17 451.304 1036.16 451.309 1036.16 451.315L1037.65 451.548ZM1035.1 396.584L1033.98 397.59L1033.98 397.59L1035.1 396.584ZM972.125 409.688L970.917 408.798C970.78 408.985 970.688 409.2 970.648 409.428L972.125 409.688ZM949.193 540V541.5C949.921 541.5 950.544 540.977 950.67 540.26L949.193 540ZM912.065 540L910.588 539.739C910.511 540.176 910.631 540.624 910.916 540.964C911.201 541.304 911.622 541.5 912.065 541.5V540ZM943.733 362.048H975.401V359.048H943.733V362.048ZM973.901 360.548V376.564H976.901V360.548H973.901ZM976.391 377.691C984.293 370.747 992.143 365.884 999.938 363.05L998.912 360.23C990.691 363.22 982.525 368.306 974.411 375.437L976.391 377.691ZM999.961 363.041C1008.03 359.956 1016.7 358.408 1026 358.408V355.408C1016.36 355.408 1007.32 357.014 998.889 360.239L999.961 363.041ZM1026 358.408C1044.17 358.408 1057.27 363.424 1065.63 373.172L1067.9 371.22C1058.79 360.584 1044.71 355.408 1026 355.408V358.408ZM1065.63 373.172C1074.05 383.002 1078.37 397.045 1078.37 415.512H1081.37C1081.37 396.608 1076.95 381.774 1067.9 371.22L1065.63 373.172ZM1078.37 415.512C1078.37 419.976 1077.18 429.435 1074.75 444.021L1077.71 444.515C1080.13 429.981 1081.37 420.269 1081.37 415.512H1078.37ZM1074.75 444.045C1072.57 458.582 1067.11 490.472 1058.37 539.738L1061.33 540.262C1070.06 491.006 1075.52 459.074 1077.71 444.491L1074.75 444.045ZM1059.85 538.5H1022.72V541.5H1059.85V538.5ZM1024.2 540.256C1031.48 498.275 1036.46 468.781 1039.13 451.781L1036.16 451.315C1033.5 468.289 1028.52 497.762 1021.24 539.744L1024.2 540.256ZM1039.12 451.798C1040.58 443.178 1041.68 436.277 1042.41 431.101C1043.13 425.963 1043.51 422.43 1043.51 420.608H1040.51C1040.51 422.183 1040.17 425.505 1039.44 430.681C1038.71 435.819 1037.62 442.689 1036.17 451.298L1039.12 451.798ZM1043.51 420.608C1043.51 409.524 1041.18 401.072 1036.21 395.578L1033.98 397.59C1038.23 402.288 1040.51 409.852 1040.51 420.608H1043.51ZM1036.21 395.578C1031.2 390.041 1023.3 387.44 1012.89 387.44V390.44C1022.87 390.44 1029.77 392.935 1033.98 397.59L1036.21 395.578ZM1012.89 387.44C995.423 387.44 981.388 394.588 970.917 408.798L973.333 410.578C983.246 397.124 996.389 390.44 1012.89 390.44V387.44ZM970.648 409.428L947.716 539.74L950.67 540.26L973.602 409.948L970.648 409.428ZM949.193 538.5H912.065V541.5H949.193V538.5ZM913.542 540.261L945.21 360.809L942.256 360.287L910.588 539.739L913.542 540.261ZM1133.91 360.548V359.048C1133.18 359.048 1132.56 359.571 1132.43 360.287L1133.91 360.548ZM1165.58 360.548H1167.08C1167.08 359.72 1166.41 359.048 1165.58 359.048V360.548ZM1165.58 376.564H1164.08C1164.08 377.153 1164.42 377.688 1164.96 377.931C1165.5 378.173 1166.12 378.08 1166.57 377.691L1165.58 376.564ZM1189.6 361.64L1190.11 363.05C1190.12 363.047 1190.13 363.044 1190.14 363.041L1189.6 361.64ZM1256.94 372.196L1255.8 373.172L1255.8 373.172L1256.94 372.196ZM1266.4 444.268L1264.93 444.021C1264.92 444.029 1264.92 444.037 1264.92 444.045L1266.4 444.268ZM1250.02 540V541.5C1250.75 541.5 1251.37 540.978 1251.5 540.262L1250.02 540ZM1212.9 540L1211.42 539.744C1211.34 540.18 1211.46 540.627 1211.75 540.966C1212.03 541.304 1212.45 541.5 1212.9 541.5V540ZM1227.82 451.548L1226.34 451.298C1226.34 451.304 1226.34 451.309 1226.34 451.315L1227.82 451.548ZM1225.27 396.584L1224.16 397.59L1224.16 397.59L1225.27 396.584ZM1162.3 409.688L1161.09 408.798C1160.96 408.985 1160.86 409.2 1160.82 409.428L1162.3 409.688ZM1139.37 540V541.5C1140.1 541.5 1140.72 540.977 1140.85 540.26L1139.37 540ZM1102.24 540L1100.76 539.739C1100.69 540.176 1100.81 540.624 1101.09 540.964C1101.38 541.304 1101.8 541.5 1102.24 541.5V540ZM1133.91 362.048H1165.58V359.048H1133.91V362.048ZM1164.08 360.548V376.564H1167.08V360.548H1164.08ZM1166.57 377.691C1174.47 370.747 1182.32 365.884 1190.11 363.05L1189.09 360.23C1180.87 363.22 1172.7 368.306 1164.59 375.437L1166.57 377.691ZM1190.14 363.041C1198.2 359.956 1206.88 358.408 1216.17 358.408V355.408C1206.54 355.408 1197.5 357.014 1189.07 360.239L1190.14 363.041ZM1216.17 358.408C1234.35 358.408 1247.45 363.424 1255.8 373.172L1258.08 371.22C1248.96 360.584 1234.88 355.408 1216.17 355.408V358.408ZM1255.8 373.172C1264.23 383.002 1268.54 397.045 1268.54 415.512H1271.54C1271.54 396.608 1267.13 381.774 1258.08 371.22L1255.8 373.172ZM1268.54 415.512C1268.54 419.976 1267.36 429.435 1264.93 444.021L1267.88 444.515C1270.31 429.981 1271.54 420.269 1271.54 415.512H1268.54ZM1264.92 444.045C1262.74 458.582 1257.28 490.472 1248.55 539.738L1251.5 540.262C1260.24 491.006 1265.7 459.074 1267.89 444.491L1264.92 444.045ZM1250.02 538.5H1212.9V541.5H1250.02V538.5ZM1214.37 540.256C1221.65 498.275 1226.63 468.781 1229.3 451.781L1226.34 451.315C1223.67 468.289 1218.7 497.762 1211.42 539.744L1214.37 540.256ZM1229.3 451.798C1230.76 443.178 1231.85 436.277 1232.58 431.101C1233.31 425.963 1233.69 422.43 1233.69 420.608H1230.69C1230.69 422.183 1230.34 425.505 1229.61 430.681C1228.89 435.819 1227.8 442.689 1226.34 451.298L1229.3 451.798ZM1233.69 420.608C1233.69 409.524 1231.36 401.072 1226.39 395.578L1224.16 397.59C1228.41 402.288 1230.69 409.852 1230.69 420.608H1233.69ZM1226.39 395.578C1221.38 390.041 1213.48 387.44 1203.07 387.44V390.44C1213.04 390.44 1219.95 392.935 1224.16 397.59L1226.39 395.578ZM1203.07 387.44C1185.6 387.44 1171.56 394.588 1161.09 408.798L1163.51 410.578C1173.42 397.124 1186.57 390.44 1203.07 390.44V387.44ZM1160.82 409.428L1137.89 539.74L1140.85 540.26L1163.78 409.948L1160.82 409.428ZM1139.37 538.5H1102.24V541.5H1139.37V538.5ZM1103.72 540.261L1135.39 360.809L1132.43 360.287L1100.76 539.739L1103.72 540.261ZM1337.19 285.2V283.7C1336.46 283.7 1335.83 284.23 1335.71 284.953L1337.19 285.2ZM1374.32 285.2L1375.8 285.447C1375.87 285.012 1375.75 284.567 1375.46 284.23C1375.18 283.894 1374.76 283.7 1374.32 283.7V285.2ZM1367.76 324.512V326.012C1368.5 326.012 1369.12 325.482 1369.24 324.759L1367.76 324.512ZM1330.64 324.512L1329.16 324.265C1329.08 324.7 1329.21 325.145 1329.49 325.482C1329.78 325.818 1330.2 326.012 1330.64 326.012V324.512ZM1324.08 360.548V359.048C1323.36 359.048 1322.73 359.571 1322.61 360.287L1324.08 360.548ZM1361.21 360.548L1362.69 360.809C1362.77 360.372 1362.65 359.924 1362.36 359.584C1362.08 359.244 1361.66 359.048 1361.21 359.048V360.548ZM1329.54 540V541.5C1330.27 541.5 1330.9 540.977 1331.02 540.261L1329.54 540ZM1292.42 540L1290.94 539.739C1290.86 540.176 1290.98 540.624 1291.27 540.964C1291.55 541.304 1291.97 541.5 1292.42 541.5V540ZM1337.19 286.7H1374.32V283.7H1337.19V286.7ZM1372.84 284.953L1366.29 324.265L1369.24 324.759L1375.8 285.447L1372.84 284.953ZM1367.76 323.012H1330.64V326.012H1367.76V323.012ZM1332.12 324.759L1338.67 285.447L1335.71 284.953L1329.16 324.265L1332.12 324.759ZM1324.08 362.048H1361.21V359.048H1324.08V362.048ZM1359.74 360.287L1328.07 539.739L1331.02 540.261L1362.69 360.809L1359.74 360.287ZM1329.54 538.5H1292.42V541.5H1329.54V538.5ZM1293.89 540.261L1325.56 360.809L1322.61 360.287L1290.94 539.739L1293.89 540.261Z" fill="#333333" fill-opacity="0.05"/>
</svg>
