<svg width="93" height="109" viewBox="0 0 93 109" fill="none" xmlns="http://www.w3.org/2000/svg">
<path d="M53.633 107.016C44.321 107.016 35.921 104.856 28.433 100.536C20.945 96.216 15.041 90.072 10.721 82.104C6.401 74.136 4.241 64.92 4.241 54.456C4.241 43.992 6.449 34.824 10.865 26.952C15.377 19.08 21.569 12.984 29.441 8.664C37.313 4.34399 46.289 2.18399 56.369 2.18399C61.457 2.18399 66.449 2.712 71.345 3.768C76.337 4.824 80.801 6.216 84.737 7.944L83.441 19.896C74.129 16.344 65.249 14.568 56.801 14.568C48.449 14.568 41.441 16.344 35.777 19.896C30.209 23.352 26.033 28.104 23.249 34.152C20.561 40.104 19.217 46.92 19.217 54.6C19.217 66.696 22.433 76.392 28.865 83.688C35.393 90.984 44.945 94.632 57.521 94.632C60.209 94.632 63.089 94.44 66.161 94.056C69.233 93.576 71.969 92.856 74.369 91.896V66.84H58.529V54.456H88.049V99.384C83.825 101.688 78.737 103.56 72.785 105C66.929 106.344 60.545 107.016 53.633 107.016Z" fill="#333333"/>
<path d="M26.3427 101.832L26.0855 102.261L26.0855 102.261L26.3427 101.832ZM12.9507 87L12.5009 87.2183L12.5022 87.2209L12.9507 87ZM15.6867 32.424L15.2469 32.1861L15.2451 32.1896L15.6867 32.424ZM79.3347 3.912L79.2243 4.39973L79.2331 4.40156L79.3347 3.912ZM91.5747 7.944L92.0547 8.084C92.1211 7.85648 92.0186 7.61363 91.8093 7.50244L91.5747 7.944ZM87.5427 21.768L87.3487 22.2288C87.4801 22.2841 87.6289 22.2807 87.7576 22.2195C87.8864 22.1582 87.9828 22.0449 88.0227 21.908L87.5427 21.768ZM75.3027 17.88L75.1865 18.3663L75.1888 18.3668L75.3027 17.88ZM42.1827 22.92L42.486 23.3176L42.487 23.3168L42.1827 22.92ZM29.3667 40.056L29.8292 40.2461L29.8301 40.2438L29.3667 40.056ZM31.5267 84.84L31.9165 84.5268L31.9165 84.5268L31.5267 84.84ZM64.9347 90.456L65.1081 90.925C65.2745 90.8635 65.3958 90.7184 65.427 90.5438L64.9347 90.456ZM68.9667 67.848L69.459 67.9358C69.485 67.7901 69.4451 67.6404 69.3501 67.527C69.2551 67.4135 69.1147 67.348 68.9667 67.348V67.848ZM57.0147 67.848L56.522 67.7632C56.497 67.9085 56.5374 68.0574 56.6324 68.1702C56.7274 68.2829 56.8673 68.348 57.0147 68.348V67.848ZM59.3187 54.456V53.956C59.0753 53.956 58.8673 54.1313 58.826 54.3712L59.3187 54.456ZM86.5347 54.456L87.0272 54.5428C87.0528 54.3973 87.0128 54.2478 86.9178 54.1346C86.8228 54.0214 86.6825 53.956 86.5347 53.956V54.456ZM78.6147 99.384L78.8512 99.8246C78.9862 99.7521 79.0805 99.6217 79.1072 99.4708L78.6147 99.384ZM63.6387 104.856L63.7546 105.342L63.7618 105.341L63.6387 104.856ZM46.5027 106.516C38.9001 106.516 32.2717 104.806 26.6 101.403L26.0855 102.261C31.9338 105.77 38.7454 107.516 46.5027 107.516V106.516ZM26.6 101.403C20.928 98.0001 16.5278 93.1309 13.3993 86.7791L12.5022 87.2209C15.7097 93.7331 20.2375 98.7519 26.0855 102.261L26.6 101.403ZM13.4006 86.7817C10.2723 80.3356 8.69874 72.6854 8.69874 63.816H7.69874C7.69874 72.8025 9.29317 80.6084 12.5009 87.2183L13.4006 86.7817ZM8.69874 63.816C8.69874 52.3709 11.1778 41.9884 16.1284 32.6584L15.2451 32.1896C10.2117 41.6756 7.69874 52.2211 7.69874 63.816H8.69874ZM16.1265 32.6619C21.1754 23.3262 27.9805 16.0002 36.5429 10.6725L36.0146 9.82346C27.297 15.2477 20.3741 22.7058 15.2469 32.1861L16.1265 32.6619ZM36.5429 10.6725C45.1028 5.34634 54.4672 2.68399 64.6467 2.68399V1.68399C54.2823 1.68399 44.7347 4.39765 36.0146 9.82346L36.5429 10.6725ZM64.6467 2.68399C69.3098 2.68399 74.1687 3.25498 79.2243 4.39965L79.4452 3.42434C74.3248 2.26501 69.3917 1.68399 64.6467 1.68399V2.68399ZM79.2331 4.40156C84.2952 5.45219 88.3251 6.78382 91.3402 8.38555L91.8093 7.50244C88.6803 5.84017 84.5502 4.4838 79.4364 3.42243L79.2331 4.40156ZM91.0947 7.804L87.0627 21.628L88.0227 21.908L92.0547 8.084L91.0947 7.804ZM87.7368 21.3072C84.0589 19.7586 79.9516 18.4545 75.4167 17.3932L75.1888 18.3668C79.6779 19.4175 83.7306 20.7054 87.3487 22.2288L87.7368 21.3072ZM75.419 17.3937C70.9716 16.3302 66.8043 15.796 62.9187 15.796V16.796C66.7132 16.796 70.8018 17.3178 75.1865 18.3663L75.419 17.3937ZM62.9187 15.796C54.7576 15.796 47.7355 18.0328 41.8785 22.5232L42.487 23.3168C48.15 18.9752 54.9519 16.796 62.9187 16.796V15.796ZM41.8795 22.5224C36.1389 26.9009 31.8144 32.6877 28.9034 39.8681L29.8301 40.2438C32.6791 33.2163 36.8986 27.5791 42.486 23.3176L41.8795 22.5224ZM28.9043 39.8659C25.9982 46.9373 24.5467 54.4902 24.5467 62.52H25.5467C25.5467 54.6138 26.9753 47.1907 29.8292 40.2461L28.9043 39.8659ZM24.5467 62.52C24.5467 72.0953 26.7229 79.6601 31.137 85.1532L31.9165 84.5268C27.6906 79.2679 25.5467 71.9527 25.5467 62.52H24.5467ZM31.137 85.1532C35.5732 90.6738 42.1168 93.404 50.6787 93.404V92.404C42.3447 92.404 36.1203 89.7582 31.9165 84.5268L31.137 85.1532ZM50.6787 93.404C55.8211 93.404 60.6323 92.5791 65.1081 90.925L64.7614 89.987C60.4052 91.5969 55.7124 92.404 50.6787 92.404V93.404ZM65.427 90.5438L69.459 67.9358L68.4745 67.7602L64.4425 90.3682L65.427 90.5438ZM68.9667 67.348H57.0147V68.348H68.9667V67.348ZM57.5075 67.9328L59.8115 54.5408L58.826 54.3712L56.522 67.7632L57.5075 67.9328ZM59.3187 54.956H86.5347V53.956H59.3187V54.956ZM86.0423 54.3692L78.1223 99.2972L79.1072 99.4708L87.0272 54.5428L86.0423 54.3692ZM78.3783 98.9434C74.4892 101.03 69.5385 102.842 63.5157 104.371L63.7618 105.341C69.835 103.798 74.8683 101.962 78.8512 99.8246L78.3783 98.9434ZM63.5229 104.37C57.5071 105.802 51.8342 106.516 46.5027 106.516V107.516C51.9233 107.516 57.6744 106.79 63.7546 105.342L63.5229 104.37Z" fill="black"/>
</svg>
