<svg width="93" height="109" viewBox="0 0 93 109" fill="none" xmlns="http://www.w3.org/2000/svg">
<path d="M53.633 107.016C44.321 107.016 35.921 104.856 28.433 100.536C20.945 96.216 15.041 90.072 10.721 82.104C6.401 74.136 4.241 64.92 4.241 54.456C4.241 43.992 6.449 34.824 10.865 26.952C15.377 19.08 21.569 12.984 29.441 8.664C37.313 4.34399 46.289 2.18399 56.369 2.18399C61.457 2.18399 66.449 2.712 71.345 3.768C76.337 4.824 80.801 6.216 84.737 7.944L83.441 19.896C74.129 16.344 65.249 14.568 56.801 14.568C48.449 14.568 41.441 16.344 35.777 19.896C30.209 23.352 26.033 28.104 23.249 34.152C20.561 40.104 19.217 46.92 19.217 54.6C19.217 66.696 22.433 76.392 28.865 83.688C35.393 90.984 44.945 94.632 57.521 94.632C60.209 94.632 63.089 94.44 66.161 94.056C69.233 93.576 71.969 92.856 74.369 91.896V66.84H58.529V54.456H88.049V99.384C83.825 101.688 78.737 103.56 72.785 105C66.929 106.344 60.545 107.016 53.633 107.016Z" fill="#4F4F4F"/>
<path d="M26.3427 101.832L25.8282 102.689L25.8282 102.689L26.3427 101.832ZM12.9507 87L12.0511 87.4366L12.0537 87.4418L12.9507 87ZM15.6867 32.424L14.8071 31.9483L14.8034 31.9553L15.6867 32.424ZM79.3347 3.912L79.1139 4.88731C79.1198 4.88864 79.1256 4.88991 79.1315 4.89113L79.3347 3.912ZM91.5747 7.944L92.5347 8.224C92.6675 7.76896 92.4625 7.28326 92.0439 7.06088L91.5747 7.944ZM87.5427 21.768L87.1547 22.6896C87.4175 22.8003 87.715 22.7935 87.9725 22.6709C88.23 22.5484 88.4229 22.3217 88.5027 22.048L87.5427 21.768ZM75.3027 17.88L75.0702 18.8526L75.0749 18.8537L75.3027 17.88ZM42.1827 22.92L42.7892 23.7151L42.7912 23.7136L42.1827 22.92ZM29.3667 40.056L30.2917 40.4361L30.2935 40.4317L29.3667 40.056ZM31.5267 84.84L32.3063 84.2136L32.3063 84.2136L31.5267 84.84ZM64.9347 90.456L65.2814 91.394C65.6142 91.271 65.8569 90.9809 65.9192 90.6316L64.9347 90.456ZM68.9667 67.848L69.9512 68.0236C70.0032 67.7322 69.9234 67.4328 69.7334 67.206C69.5434 66.9791 69.2627 66.848 68.9667 66.848V67.848ZM57.0147 67.848L56.0292 67.6784C55.9792 67.969 56.06 68.2669 56.25 68.4924C56.44 68.7179 56.7199 68.848 57.0147 68.848V67.848ZM59.3187 54.456V53.456C58.8319 53.456 58.4158 53.8066 58.3332 54.2864L59.3187 54.456ZM86.5347 54.456L87.5196 54.6296C87.5709 54.3385 87.4908 54.0396 87.3008 53.8132C87.1108 53.5868 86.8303 53.456 86.5347 53.456V54.456ZM78.6147 99.384L79.0876 100.265C79.3576 100.12 79.5464 99.8595 79.5996 99.5576L78.6147 99.384ZM63.6387 104.856L63.8704 105.829C63.8752 105.828 63.8801 105.826 63.8849 105.825L63.6387 104.856ZM46.5027 106.016C38.9775 106.016 32.4406 104.325 26.8572 100.975L25.8282 102.689C31.7649 106.251 38.668 108.016 46.5027 108.016V106.016ZM26.8572 100.975C21.2733 97.6242 16.9369 92.8299 13.8478 86.5582L12.0537 87.4418C15.3006 94.0341 19.8922 99.1278 25.8282 102.689L26.8572 100.975ZM13.8504 86.5634C10.7619 80.1992 9.19874 72.6269 9.19874 63.816H7.19874C7.19874 72.8611 8.80361 80.7448 12.0511 87.4366L13.8504 86.5634ZM9.19874 63.816C9.19874 52.4457 11.6609 42.1447 16.5701 32.8927L14.8034 31.9553C9.72863 41.5193 7.19874 52.1462 7.19874 63.816H9.19874ZM16.5663 32.8997C21.5761 23.6364 28.3222 16.3765 36.807 11.097L35.7504 9.39894C26.9553 14.8715 19.9734 22.3955 14.8071 31.9483L16.5663 32.8997ZM36.807 11.097C45.2869 5.82069 54.5596 3.18399 64.6467 3.18399V1.18399C54.1899 1.18399 44.5506 3.9233 35.7504 9.39894L36.807 11.097ZM64.6467 3.18399C69.2689 3.18399 74.0906 3.74996 79.1139 4.88731L79.5556 2.93668C74.4029 1.77003 69.4326 1.18399 64.6467 1.18399V3.18399ZM79.1315 4.89113C84.1677 5.93638 88.1475 7.25564 91.1056 8.82711L92.0439 7.06088C88.858 5.36835 84.6777 3.99961 79.538 2.93286L79.1315 4.89113ZM90.6147 7.664L86.5827 21.488L88.5027 22.048L92.5347 8.224L90.6147 7.664ZM87.9308 20.8464C84.2231 19.2852 80.0884 17.973 75.5306 16.9063L75.0749 18.8537C79.5411 19.899 83.5664 21.1788 87.1547 22.6896L87.9308 20.8464ZM75.5353 16.9074C71.0565 15.8364 66.8498 15.296 62.9187 15.296V17.296C66.6677 17.296 70.717 17.8116 75.0702 18.8526L75.5353 16.9074ZM62.9187 15.296C54.6605 15.296 47.5283 17.5617 41.5743 22.1264L42.7912 23.7136C48.3572 19.4463 55.049 17.296 62.9187 17.296V15.296ZM41.5763 22.1249C35.7591 26.5617 31.382 32.4234 28.44 39.6803L30.2935 40.4317C33.1115 33.4806 37.2784 27.9183 42.7892 23.7151L41.5763 22.1249ZM28.4418 39.6759C25.5097 46.8107 24.0467 54.4285 24.0467 62.52H26.0467C26.0467 54.6755 27.4638 47.3173 30.2917 40.4361L28.4418 39.6759ZM24.0467 62.52C24.0467 72.1666 26.239 79.8561 30.7472 85.4664L32.3063 84.2136C28.1745 79.0719 26.0467 71.8814 26.0467 62.52H24.0467ZM30.7472 85.4664C35.2996 91.1316 42.0029 93.904 50.6787 93.904V91.904C42.4586 91.904 36.3939 89.3004 32.3063 84.2136L30.7472 85.4664ZM50.6787 93.904C55.8755 93.904 60.7458 93.0702 65.2814 91.394L64.5881 89.518C60.2917 91.1058 55.658 91.904 50.6787 91.904V93.904ZM65.9192 90.6316L69.9512 68.0236L67.9823 67.6724L63.9503 90.2804L65.9192 90.6316ZM68.9667 66.848H57.0147V68.848H68.9667V66.848ZM58.0003 68.0175L60.3043 54.6256L58.3332 54.2864L56.0292 67.6784L58.0003 68.0175ZM59.3187 55.456H86.5347V53.456H59.3187V55.456ZM85.5499 54.2824L77.6299 99.2104L79.5996 99.5576L87.5196 54.6296L85.5499 54.2824ZM78.1419 98.5028C74.2996 100.565 69.3903 102.364 63.3926 103.887L63.8849 105.825C69.9832 104.276 75.0579 102.427 79.0876 100.265L78.1419 98.5028ZM63.4071 103.883C57.4235 105.308 51.7897 106.016 46.5027 106.016V108.016C51.9678 108.016 57.758 107.284 63.8704 105.829L63.4071 103.883Z" fill="black"/>
</svg>
